# xmcd
#
# Track frame offsets:
#   150
#   17085
#   32688
#   48569
#   66161
#   81622
#   99258
#   113402
#   134263
#   150836
#   167489
#   183843
#
# Disc length: 2732 seconds
#
# Revision: 0
# Processed by: cddbd v1.5.2PL0 Copyright (c) Steve Scherf et al.
# Submitted via: GXTranscoder 2.0.1939
#
DISCID=8a0aaa0c
DTITLE=Nevio - Nevio
DYEAR=2007
DGENRE=Pop
TTITLE0=Amore per sempre
TTITLE1=Lo dico a te
TTITLE2=Bellissima
TTITLE3=Run away
TTITLE4=Halt mich
TTITLE5=Vorbei
TTITLE6=Grappolo di vita
TTITLE7=Stella
TTITLE8=Sano egoismo
TTITLE9=Vedrai
TTITLE10=Alleluia girl
TTITLE11=Dolphins make me cry
EXTD=
EXTT0=
EXTT1=
EXTT2=
EXTT3=
EXTT4=
EXTT5=
EXTT6=
EXTT7=
EXTT8=
EXTT9=
EXTT10=
EXTT11=
PLAYORDER=
